<mxfile host="app.diagrams.net" modified="2023-06-09T18:04:24.710Z" agent="Mozilla/5.0 (Windows NT 10.0; Win64; x64) AppleWebKit/537.36 (KHTML, like Gecko) Chrome/113.0.0.0 Safari/537.36 OPR/99.0.0.0" etag="ERjf5yyJiQatz9M-KbFi" version="21.3.8" type="github">
  <diagram id="C5RBs43oDa-KdzZeNtuy" name="Page-1">
    <mxGraphModel dx="961" dy="523" grid="1" gridSize="10" guides="1" tooltips="1" connect="1" arrows="1" fold="1" page="1" pageScale="1" pageWidth="827" pageHeight="1169" math="0" shadow="0">
      <root>
        <mxCell id="WIyWlLk6GJQsqaUBKTNV-0" />
        <mxCell id="WIyWlLk6GJQsqaUBKTNV-1" parent="WIyWlLk6GJQsqaUBKTNV-0" />
        <mxCell id="ReCScM4sRMLZIFWJEKZz-17" value="prog_choise [2:0]" style="edgeStyle=orthogonalEdgeStyle;rounded=0;orthogonalLoop=1;jettySize=auto;html=1;entryX=0;entryY=0.25;entryDx=0;entryDy=0;" parent="WIyWlLk6GJQsqaUBKTNV-1" source="ReCScM4sRMLZIFWJEKZz-0" target="ReCScM4sRMLZIFWJEKZz-15" edge="1">
          <mxGeometry x="-0.0805" relative="1" as="geometry">
            <Array as="points">
              <mxPoint x="140" y="240" />
              <mxPoint x="140" y="240" />
            </Array>
            <mxPoint as="offset" />
          </mxGeometry>
        </mxCell>
        <mxCell id="ReCScM4sRMLZIFWJEKZz-23" style="edgeStyle=orthogonalEdgeStyle;rounded=0;orthogonalLoop=1;jettySize=auto;html=1;entryX=0;entryY=0.5;entryDx=0;entryDy=0;" parent="WIyWlLk6GJQsqaUBKTNV-1" source="ReCScM4sRMLZIFWJEKZz-0" target="ReCScM4sRMLZIFWJEKZz-3" edge="1">
          <mxGeometry relative="1" as="geometry">
            <Array as="points">
              <mxPoint x="100" y="240" />
              <mxPoint x="100" y="180" />
            </Array>
          </mxGeometry>
        </mxCell>
        <mxCell id="ReCScM4sRMLZIFWJEKZz-0" value="Program choice&lt;br&gt;SW[2:0]" style="rounded=0;whiteSpace=wrap;html=1;" parent="WIyWlLk6GJQsqaUBKTNV-1" vertex="1">
          <mxGeometry y="210" width="70" height="60" as="geometry" />
        </mxCell>
        <mxCell id="ReCScM4sRMLZIFWJEKZz-16" value="prog_conf[2:0]" style="edgeStyle=orthogonalEdgeStyle;rounded=0;orthogonalLoop=1;jettySize=auto;html=1;entryX=0;entryY=0.75;entryDx=0;entryDy=0;" parent="WIyWlLk6GJQsqaUBKTNV-1" source="ReCScM4sRMLZIFWJEKZz-1" target="ReCScM4sRMLZIFWJEKZz-15" edge="1">
          <mxGeometry x="-0.0805" relative="1" as="geometry">
            <Array as="points">
              <mxPoint x="90" y="320" />
              <mxPoint x="90" y="320" />
            </Array>
            <mxPoint as="offset" />
          </mxGeometry>
        </mxCell>
        <mxCell id="ReCScM4sRMLZIFWJEKZz-24" style="edgeStyle=orthogonalEdgeStyle;rounded=0;orthogonalLoop=1;jettySize=auto;html=1;entryX=0;entryY=0.5;entryDx=0;entryDy=0;" parent="WIyWlLk6GJQsqaUBKTNV-1" source="ReCScM4sRMLZIFWJEKZz-1" target="ReCScM4sRMLZIFWJEKZz-9" edge="1">
          <mxGeometry relative="1" as="geometry">
            <Array as="points">
              <mxPoint x="100" y="320" />
              <mxPoint x="100" y="370" />
            </Array>
          </mxGeometry>
        </mxCell>
        <mxCell id="ReCScM4sRMLZIFWJEKZz-1" value="Program configuration&lt;br&gt;SW[2:0]" style="rounded=0;whiteSpace=wrap;html=1;" parent="WIyWlLk6GJQsqaUBKTNV-1" vertex="1">
          <mxGeometry y="290" width="70" height="60" as="geometry" />
        </mxCell>
        <mxCell id="ReCScM4sRMLZIFWJEKZz-7" style="edgeStyle=orthogonalEdgeStyle;rounded=0;orthogonalLoop=1;jettySize=auto;html=1;" parent="WIyWlLk6GJQsqaUBKTNV-1" source="ReCScM4sRMLZIFWJEKZz-3" target="ReCScM4sRMLZIFWJEKZz-4" edge="1">
          <mxGeometry relative="1" as="geometry" />
        </mxCell>
        <mxCell id="ReCScM4sRMLZIFWJEKZz-3" value="Transcoder to hex dispay" style="rounded=0;whiteSpace=wrap;html=1;" parent="WIyWlLk6GJQsqaUBKTNV-1" vertex="1">
          <mxGeometry x="120" y="150" width="80" height="60" as="geometry" />
        </mxCell>
        <mxCell id="ReCScM4sRMLZIFWJEKZz-4" value="&amp;nbsp; &amp;nbsp; &amp;nbsp;_&amp;nbsp;&amp;nbsp;&lt;br&gt;&amp;nbsp; /_ /&lt;br&gt;/_ /" style="rounded=0;whiteSpace=wrap;html=1;" parent="WIyWlLk6GJQsqaUBKTNV-1" vertex="1">
          <mxGeometry x="220" y="150" width="40" height="60" as="geometry" />
        </mxCell>
        <mxCell id="ReCScM4sRMLZIFWJEKZz-8" style="edgeStyle=orthogonalEdgeStyle;rounded=0;orthogonalLoop=1;jettySize=auto;html=1;" parent="WIyWlLk6GJQsqaUBKTNV-1" source="ReCScM4sRMLZIFWJEKZz-9" target="ReCScM4sRMLZIFWJEKZz-10" edge="1">
          <mxGeometry relative="1" as="geometry" />
        </mxCell>
        <mxCell id="ReCScM4sRMLZIFWJEKZz-9" value="Transcoder to hex dispay" style="rounded=0;whiteSpace=wrap;html=1;" parent="WIyWlLk6GJQsqaUBKTNV-1" vertex="1">
          <mxGeometry x="120" y="340" width="80" height="60" as="geometry" />
        </mxCell>
        <mxCell id="ReCScM4sRMLZIFWJEKZz-10" value="&amp;nbsp; &amp;nbsp; &amp;nbsp;_&amp;nbsp;&amp;nbsp;&lt;br&gt;&amp;nbsp; /_ /&lt;br&gt;/_ /" style="rounded=0;whiteSpace=wrap;html=1;" parent="WIyWlLk6GJQsqaUBKTNV-1" vertex="1">
          <mxGeometry x="220" y="340" width="40" height="60" as="geometry" />
        </mxCell>
        <mxCell id="ReCScM4sRMLZIFWJEKZz-19" value="bit_to_transmit" style="edgeStyle=orthogonalEdgeStyle;rounded=0;orthogonalLoop=1;jettySize=auto;html=1;exitX=1;exitY=0.25;exitDx=0;exitDy=0;entryX=0;entryY=0.25;entryDx=0;entryDy=0;" parent="WIyWlLk6GJQsqaUBKTNV-1" source="ReCScM4sRMLZIFWJEKZz-15" target="ReCScM4sRMLZIFWJEKZz-18" edge="1">
          <mxGeometry x="0.0175" y="-10" relative="1" as="geometry">
            <mxPoint as="offset" />
          </mxGeometry>
        </mxCell>
        <mxCell id="ReCScM4sRMLZIFWJEKZz-75" value="== 1" style="edgeStyle=orthogonalEdgeStyle;rounded=0;orthogonalLoop=1;jettySize=auto;html=1;exitX=1;exitY=0.25;exitDx=0;exitDy=0;entryX=0.5;entryY=0;entryDx=0;entryDy=0;" parent="WIyWlLk6GJQsqaUBKTNV-1" source="ReCScM4sRMLZIFWJEKZz-15" target="ReCScM4sRMLZIFWJEKZz-46" edge="1">
          <mxGeometry x="0.8248" relative="1" as="geometry">
            <Array as="points">
              <mxPoint x="420" y="240" />
              <mxPoint x="420" y="10" />
              <mxPoint x="470" y="10" />
            </Array>
            <mxPoint as="offset" />
          </mxGeometry>
        </mxCell>
        <mxCell id="ReCScM4sRMLZIFWJEKZz-76" value="== 0" style="edgeStyle=orthogonalEdgeStyle;rounded=0;orthogonalLoop=1;jettySize=auto;html=1;exitX=1;exitY=0.25;exitDx=0;exitDy=0;entryX=0.5;entryY=0;entryDx=0;entryDy=0;" parent="WIyWlLk6GJQsqaUBKTNV-1" source="ReCScM4sRMLZIFWJEKZz-15" target="ReCScM4sRMLZIFWJEKZz-44" edge="1">
          <mxGeometry x="0.909" relative="1" as="geometry">
            <Array as="points">
              <mxPoint x="420" y="240" />
              <mxPoint x="420" y="10" />
              <mxPoint x="787" y="10" />
            </Array>
            <mxPoint as="offset" />
          </mxGeometry>
        </mxCell>
        <mxCell id="ReCScM4sRMLZIFWJEKZz-15" value="Frame generator" style="rounded=0;whiteSpace=wrap;html=1;" parent="WIyWlLk6GJQsqaUBKTNV-1" vertex="1">
          <mxGeometry x="287.5" y="200" width="120" height="160" as="geometry" />
        </mxCell>
        <mxCell id="ReCScM4sRMLZIFWJEKZz-20" value="new_bit_rqst" style="edgeStyle=orthogonalEdgeStyle;rounded=0;orthogonalLoop=1;jettySize=auto;html=1;exitX=0;exitY=0.75;exitDx=0;exitDy=0;entryX=1;entryY=0.75;entryDx=0;entryDy=0;" parent="WIyWlLk6GJQsqaUBKTNV-1" source="ReCScM4sRMLZIFWJEKZz-18" target="ReCScM4sRMLZIFWJEKZz-15" edge="1">
          <mxGeometry x="-0.0154" relative="1" as="geometry">
            <mxPoint as="offset" />
          </mxGeometry>
        </mxCell>
        <mxCell id="ReCScM4sRMLZIFWJEKZz-28" value="bit_nr[4:0] == 24&lt;br&gt;-&amp;gt; new_frame_rqst" style="edgeStyle=orthogonalEdgeStyle;rounded=0;orthogonalLoop=1;jettySize=auto;html=1;exitX=0.25;exitY=1;exitDx=0;exitDy=0;entryX=1;entryY=0.5;entryDx=0;entryDy=0;" parent="WIyWlLk6GJQsqaUBKTNV-1" source="ReCScM4sRMLZIFWJEKZz-18" target="ReCScM4sRMLZIFWJEKZz-25" edge="1">
          <mxGeometry x="0.3959" relative="1" as="geometry">
            <mxPoint as="offset" />
          </mxGeometry>
        </mxCell>
        <mxCell id="ReCScM4sRMLZIFWJEKZz-36" style="edgeStyle=orthogonalEdgeStyle;rounded=0;orthogonalLoop=1;jettySize=auto;html=1;exitX=0.25;exitY=1;exitDx=0;exitDy=0;entryX=0;entryY=0.5;entryDx=0;entryDy=0;" parent="WIyWlLk6GJQsqaUBKTNV-1" source="ReCScM4sRMLZIFWJEKZz-18" target="ReCScM4sRMLZIFWJEKZz-29" edge="1">
          <mxGeometry relative="1" as="geometry" />
        </mxCell>
        <mxCell id="ReCScM4sRMLZIFWJEKZz-43" value="di_led" style="edgeStyle=orthogonalEdgeStyle;rounded=0;orthogonalLoop=1;jettySize=auto;html=1;exitX=1;exitY=0.5;exitDx=0;exitDy=0;entryX=0;entryY=0.5;entryDx=0;entryDy=0;" parent="WIyWlLk6GJQsqaUBKTNV-1" source="ReCScM4sRMLZIFWJEKZz-18" target="ReCScM4sRMLZIFWJEKZz-42" edge="1">
          <mxGeometry x="-0.2308" y="-10" relative="1" as="geometry">
            <mxPoint as="offset" />
          </mxGeometry>
        </mxCell>
        <mxCell id="ReCScM4sRMLZIFWJEKZz-18" value="Single frame transmiter" style="rounded=0;whiteSpace=wrap;html=1;" parent="WIyWlLk6GJQsqaUBKTNV-1" vertex="1">
          <mxGeometry x="550" y="200" width="150" height="160" as="geometry" />
        </mxCell>
        <mxCell id="ReCScM4sRMLZIFWJEKZz-26" value="diode_nr_in_frame&lt;br&gt;[3:0]" style="edgeStyle=orthogonalEdgeStyle;rounded=0;orthogonalLoop=1;jettySize=auto;html=1;exitX=0.25;exitY=0;exitDx=0;exitDy=0;entryX=0.25;entryY=1;entryDx=0;entryDy=0;" parent="WIyWlLk6GJQsqaUBKTNV-1" source="ReCScM4sRMLZIFWJEKZz-25" target="ReCScM4sRMLZIFWJEKZz-15" edge="1">
          <mxGeometry x="0.1429" y="-2" relative="1" as="geometry">
            <mxPoint as="offset" />
          </mxGeometry>
        </mxCell>
        <mxCell id="ReCScM4sRMLZIFWJEKZz-27" value="new_frame_rqst" style="edgeStyle=orthogonalEdgeStyle;rounded=0;orthogonalLoop=1;jettySize=auto;html=1;exitX=0.75;exitY=0;exitDx=0;exitDy=0;entryX=0.75;entryY=1;entryDx=0;entryDy=0;" parent="WIyWlLk6GJQsqaUBKTNV-1" source="ReCScM4sRMLZIFWJEKZz-25" target="ReCScM4sRMLZIFWJEKZz-15" edge="1">
          <mxGeometry x="-0.4286" relative="1" as="geometry">
            <mxPoint as="offset" />
          </mxGeometry>
        </mxCell>
        <mxCell id="ReCScM4sRMLZIFWJEKZz-25" value="Frame counter" style="rounded=0;whiteSpace=wrap;html=1;" parent="WIyWlLk6GJQsqaUBKTNV-1" vertex="1">
          <mxGeometry x="287.5" y="430" width="120" height="60" as="geometry" />
        </mxCell>
        <mxCell id="ReCScM4sRMLZIFWJEKZz-34" style="edgeStyle=orthogonalEdgeStyle;rounded=0;orthogonalLoop=1;jettySize=auto;html=1;exitX=0;exitY=0.5;exitDx=0;exitDy=0;entryX=0;entryY=0.5;entryDx=0;entryDy=0;" parent="WIyWlLk6GJQsqaUBKTNV-1" source="ReCScM4sRMLZIFWJEKZz-29" target="ReCScM4sRMLZIFWJEKZz-29" edge="1">
          <mxGeometry relative="1" as="geometry" />
        </mxCell>
        <mxCell id="ReCScM4sRMLZIFWJEKZz-37" value="reset_signal" style="edgeStyle=orthogonalEdgeStyle;rounded=0;orthogonalLoop=1;jettySize=auto;html=1;" parent="WIyWlLk6GJQsqaUBKTNV-1" source="ReCScM4sRMLZIFWJEKZz-29" edge="1">
          <mxGeometry relative="1" as="geometry">
            <mxPoint x="650" y="362" as="targetPoint" />
          </mxGeometry>
        </mxCell>
        <mxCell id="ReCScM4sRMLZIFWJEKZz-29" value="Prescaler&lt;br&gt;50 000ns" style="rounded=0;whiteSpace=wrap;html=1;" parent="WIyWlLk6GJQsqaUBKTNV-1" vertex="1">
          <mxGeometry x="620" y="430" width="60" height="60" as="geometry" />
        </mxCell>
        <mxCell id="ReCScM4sRMLZIFWJEKZz-38" value="Frame: { G[7:0], R[7:0], B[7:0] } -&amp;gt; reset" style="text;html=1;align=center;verticalAlign=middle;resizable=0;points=[];autosize=1;strokeColor=none;fillColor=none;" parent="WIyWlLk6GJQsqaUBKTNV-1" vertex="1">
          <mxGeometry x="20" y="490" width="230" height="30" as="geometry" />
        </mxCell>
        <mxCell id="ReCScM4sRMLZIFWJEKZz-39" value="Bit == 0: DI = 1 for 400ns, DI = 0 for 850ns" style="text;html=1;align=center;verticalAlign=middle;resizable=0;points=[];autosize=1;strokeColor=none;fillColor=none;" parent="WIyWlLk6GJQsqaUBKTNV-1" vertex="1">
          <mxGeometry x="10" y="532" width="250" height="30" as="geometry" />
        </mxCell>
        <mxCell id="ReCScM4sRMLZIFWJEKZz-40" value="Bit == 1: DI = 1 for 800ns, DI = 0 for 450ns" style="text;html=1;align=center;verticalAlign=middle;resizable=0;points=[];autosize=1;strokeColor=none;fillColor=none;" parent="WIyWlLk6GJQsqaUBKTNV-1" vertex="1">
          <mxGeometry x="10" y="572" width="250" height="30" as="geometry" />
        </mxCell>
        <mxCell id="ReCScM4sRMLZIFWJEKZz-41" value="Reset: DI = 0 for 50 000ns" style="text;html=1;align=center;verticalAlign=middle;resizable=0;points=[];autosize=1;strokeColor=none;fillColor=none;" parent="WIyWlLk6GJQsqaUBKTNV-1" vertex="1">
          <mxGeometry x="50" y="602" width="160" height="30" as="geometry" />
        </mxCell>
        <mxCell id="ReCScM4sRMLZIFWJEKZz-42" value="DI led pin" style="rounded=0;whiteSpace=wrap;html=1;" parent="WIyWlLk6GJQsqaUBKTNV-1" vertex="1">
          <mxGeometry x="752" y="250" width="70" height="60" as="geometry" />
        </mxCell>
        <mxCell id="ReCScM4sRMLZIFWJEKZz-71" style="edgeStyle=orthogonalEdgeStyle;rounded=0;orthogonalLoop=1;jettySize=auto;html=1;entryX=0.5;entryY=0;entryDx=0;entryDy=0;" parent="WIyWlLk6GJQsqaUBKTNV-1" source="ReCScM4sRMLZIFWJEKZz-44" target="ReCScM4sRMLZIFWJEKZz-45" edge="1">
          <mxGeometry relative="1" as="geometry" />
        </mxCell>
        <mxCell id="ReCScM4sRMLZIFWJEKZz-73" style="edgeStyle=orthogonalEdgeStyle;rounded=0;orthogonalLoop=1;jettySize=auto;html=1;exitX=0.5;exitY=1;exitDx=0;exitDy=0;entryX=0.75;entryY=0;entryDx=0;entryDy=0;" parent="WIyWlLk6GJQsqaUBKTNV-1" source="ReCScM4sRMLZIFWJEKZz-44" target="ReCScM4sRMLZIFWJEKZz-18" edge="1">
          <mxGeometry relative="1" as="geometry">
            <Array as="points">
              <mxPoint x="787" y="130" />
              <mxPoint x="663" y="130" />
            </Array>
          </mxGeometry>
        </mxCell>
        <mxCell id="ReCScM4sRMLZIFWJEKZz-44" value="Prescaler&lt;br&gt;400ns" style="rounded=0;whiteSpace=wrap;html=1;" parent="WIyWlLk6GJQsqaUBKTNV-1" vertex="1">
          <mxGeometry x="757" y="60" width="60" height="60" as="geometry" />
        </mxCell>
        <mxCell id="ReCScM4sRMLZIFWJEKZz-69" style="edgeStyle=orthogonalEdgeStyle;rounded=0;orthogonalLoop=1;jettySize=auto;html=1;entryX=1;entryY=0;entryDx=0;entryDy=0;" parent="WIyWlLk6GJQsqaUBKTNV-1" source="ReCScM4sRMLZIFWJEKZz-45" target="ReCScM4sRMLZIFWJEKZz-18" edge="1">
          <mxGeometry relative="1" as="geometry" />
        </mxCell>
        <mxCell id="ReCScM4sRMLZIFWJEKZz-45" value="Prescaler&lt;br&gt;850ns" style="rounded=0;whiteSpace=wrap;html=1;" parent="WIyWlLk6GJQsqaUBKTNV-1" vertex="1">
          <mxGeometry x="757" y="150" width="60" height="60" as="geometry" />
        </mxCell>
        <mxCell id="ReCScM4sRMLZIFWJEKZz-70" style="edgeStyle=orthogonalEdgeStyle;rounded=0;orthogonalLoop=1;jettySize=auto;html=1;entryX=0.5;entryY=0;entryDx=0;entryDy=0;" parent="WIyWlLk6GJQsqaUBKTNV-1" source="ReCScM4sRMLZIFWJEKZz-46" target="ReCScM4sRMLZIFWJEKZz-47" edge="1">
          <mxGeometry relative="1" as="geometry" />
        </mxCell>
        <mxCell id="ReCScM4sRMLZIFWJEKZz-72" style="edgeStyle=orthogonalEdgeStyle;rounded=0;orthogonalLoop=1;jettySize=auto;html=1;exitX=0.5;exitY=1;exitDx=0;exitDy=0;entryX=0.25;entryY=0;entryDx=0;entryDy=0;" parent="WIyWlLk6GJQsqaUBKTNV-1" source="ReCScM4sRMLZIFWJEKZz-46" target="ReCScM4sRMLZIFWJEKZz-18" edge="1">
          <mxGeometry relative="1" as="geometry">
            <Array as="points">
              <mxPoint x="470" y="130" />
              <mxPoint x="587" y="130" />
            </Array>
          </mxGeometry>
        </mxCell>
        <mxCell id="ReCScM4sRMLZIFWJEKZz-46" value="Prescaler&lt;br&gt;800ns" style="rounded=0;whiteSpace=wrap;html=1;" parent="WIyWlLk6GJQsqaUBKTNV-1" vertex="1">
          <mxGeometry x="440" y="60" width="60" height="60" as="geometry" />
        </mxCell>
        <mxCell id="ReCScM4sRMLZIFWJEKZz-62" style="edgeStyle=orthogonalEdgeStyle;rounded=0;orthogonalLoop=1;jettySize=auto;html=1;entryX=0;entryY=0;entryDx=0;entryDy=0;" parent="WIyWlLk6GJQsqaUBKTNV-1" source="ReCScM4sRMLZIFWJEKZz-47" target="ReCScM4sRMLZIFWJEKZz-18" edge="1">
          <mxGeometry relative="1" as="geometry" />
        </mxCell>
        <mxCell id="ReCScM4sRMLZIFWJEKZz-47" value="Prescaler&lt;br&gt;450ns" style="rounded=0;whiteSpace=wrap;html=1;" parent="WIyWlLk6GJQsqaUBKTNV-1" vertex="1">
          <mxGeometry x="440" y="150" width="60" height="60" as="geometry" />
        </mxCell>
        <mxCell id="Wm1BEDs0xYY4NqCO6771-0" value="Each block connected to CLK signal" style="text;html=1;align=center;verticalAlign=middle;resizable=0;points=[];autosize=1;strokeColor=none;fillColor=none;" vertex="1" parent="WIyWlLk6GJQsqaUBKTNV-1">
          <mxGeometry x="60" y="50" width="220" height="30" as="geometry" />
        </mxCell>
      </root>
    </mxGraphModel>
  </diagram>
</mxfile>
